<?xml version="1.0" encoding="UTF-8" standalone="no"?>
<!-- Generator: Adobe Illustrator 24.2.1, SVG Export Plug-In . SVG Version: 6.00 Build 0)  -->

<svg
   version="1.1"
   id="Capa_1"
   x="0px"
   y="0px"
   viewBox="0 0 792 120"
   xml:space="preserve"
   sodipodi:docname="logos.svg"
   width="792"
   height="120"
   inkscape:version="1.1 (c4e8f9e, 2021-05-24)"
   xmlns:inkscape="http://www.inkscape.org/namespaces/inkscape"
   xmlns:sodipodi="http://sodipodi.sourceforge.net/DTD/sodipodi-0.dtd"
   xmlns="http://www.w3.org/2000/svg"
   xmlns:svg="http://www.w3.org/2000/svg"><defs
   id="defs98" /><sodipodi:namedview
   id="namedview96"
   pagecolor="#ffffff"
   bordercolor="#666666"
   borderopacity="1.0"
   inkscape:pageshadow="2"
   inkscape:pageopacity="0.0"
   inkscape:pagecheckerboard="0"
   showgrid="false"
   height="300px"
   inkscape:zoom="1.0212418"
   inkscape:cx="338.3136"
   inkscape:cy="-17.136"
   inkscape:window-width="1384"
   inkscape:window-height="847"
   inkscape:window-x="46"
   inkscape:window-y="25"
   inkscape:window-maximized="0"
   inkscape:current-layer="Capa_1" />
<style
   type="text/css"
   id="style51">
	.st0{fill:#1D1D1B;}
</style>
<path
   class="st0"
   d="m 287.3,87 c -1.3,-2.5 -2.9,-4 -5.6,-4.9 V 28.6 c 0,-4 0.2,-7.7 2.9,-13 -4.3,3.6 -8.3,5.3 -12.9,5.3 -0.8,0 -1.6,-0.1 -2.5,-0.2 2.1,2.7 2.5,5.1 2.5,8.2 v 54.3 c -2.7,1.4 -4.3,4 -4.6,8.2 1.8,-0.8 3.3,-1.2 4.4,-1.2 3.1,0 5.6,1.9 8.3,5.6 2.5,-2.9 6.6,-6.2 12.1,-9.6 L 291,84.3 Z"
   id="path53" />
<path
   class="st0"
   d="m 414.2,89 c 1.6,-0.3 2.8,-0.3 3.3,-0.3 3.5,0 9.9,1.8 17.7,6.7 0.2,0.1 0.5,0.3 0.7,0.5 l 13.4,-11.5 -0.8,-2 -6.2,4.9 c -2.4,-1.8 -4.6,-3.2 -7.1,-4.3 -1.8,-0.9 -3.6,-1.4 -5.5,-1.8 v -7.7 l 5.5,-3.9 16.6,-11.8 c -4.3,-4.1 -7.9,-10.5 -10.6,-18.7 -1.7,1.9 -3.7,3.4 -6,4.6 -3.5,1.9 -7.6,2.9 -11.9,2.9 -2.1,0 -4.3,-0.4 -6.3,-0.9 2.3,2.7 2.7,6.1 2.7,11.2 V 82 c -2.3,1.3 -4.1,3.6 -5.5,7 z m 15.6,-41.1 c 1.2,-0.4 2.6,-0.6 3.8,-1.1 0.5,1.5 1.1,2.9 1.7,4.4 1.6,3.9 3.5,7.9 5.6,11.9 l -5.6,3.9 -5.5,3.9 z"
   id="path55" />
<path
   class="st0"
   d="m 714,34.6 c 5.2,-1.5 9.7,-5.5 12.6,-11.6 l 1.5,0.9 0.2,-1 c -2.8,-1.5 -5.5,-3.4 -7.9,-5.4 -1.9,4.1 -4.1,7.1 -6.4,9.5 -3.9,3.5 -8.4,5.1 -14.1,5.1 h -0.3 c 2.8,2.2 5.7,3.2 9.4,3.2 1.7,0 3.3,-0.2 5,-0.7 z"
   id="path57" />
<path
   class="st0"
   d="m 337,46.7 c -1.2,0.2 -2.2,0.3 -2.9,0.3 -4.7,0 -8.6,-2.5 -12.7,-7.7 -1.6,1.6 -3.6,3 -5.6,4.2 -4.1,2.3 -8.7,3.4 -13.2,3.4 -2.1,0 -4.3,-0.3 -6.5,-0.9 2.3,2.7 2.9,6.1 2.9,11.2 v 24.7 c -2.5,1.6 -4.2,4 -5.6,7.2 1.6,-0.3 2.7,-0.3 3.4,-0.3 4.7,0 8.7,2.5 13.3,7.2 1.8,-2.1 3.7,-3.7 5.7,-4.9 3.8,-2.4 8.1,-3.4 12.9,-3.4 1.9,0 4,0.2 6.2,0.4 -2.2,-3.6 -2.4,-6.3 -2.4,-9.9 v -26 c 2,-1.7 3.6,-3.4 4.5,-5.5 z m -14.6,39.7 c -1.2,0.3 -2.6,0.7 -3.8,1.2 -0.9,-1.5 -1.8,-2.6 -2.9,-3.6 -1.9,-1.7 -4.1,-2.7 -6.7,-2.9 V 47.9 c 1.1,-0.4 2.5,-0.6 3.7,-1.1 1,1.6 1.9,2.9 3,4 1.8,1.7 4,2.8 6.6,3.3 v 32.3 z"
   id="path59" />
<path
   class="st0"
   d="m 216.9,86.5 v -1.3 c -5,-0.6 -6.3,-3 -6.3,-8.5 V 52.6 c 2.6,-1.6 4.3,-3.7 5.5,-6.7 h -0.3 c -4.3,0 -7.9,-2 -11.6,-6.5 -3.1,4.3 -6.2,7.4 -9.8,9 1.5,2.3 3.5,3.7 6.2,4.6 v 27.9 c 0,7.1 0.9,11 6.1,14.8 3.1,-3.9 6.4,-7 10.2,-9.2 z"
   id="path61" />
<path
   class="st0"
   d="m 19,63.3 v 12 c 0,3.9 -0.6,7 -2.2,9.8 2.3,-0.9 4.2,-1.7 5.8,-2.6 6.3,-3.4 8,-7.8 8,-16.5 V 42.4 c 0,-4.8 0.3,-8.2 1.5,-10.3 -4.3,0.9 -7.4,2.2 -9.6,3.9 -2.5,2.1 -3.6,5 -3.6,9.6 v 5.2 H 18 c -6,0 -9.3,4.3 -9.3,10.9 0,2.3 0.5,4.6 1.4,7.1 1.2,-3.8 3.3,-5.6 6.6,-5.6 0.5,0 1.3,0.1 2.3,0.1 z"
   id="path63" />
<path
   class="st0"
   d="M 63.7,81.7 C 58,78.7 52.9,77.1 48,77.1 c -3.6,0 -7.2,0.4 -10.9,1.6 V 59.9 c 2.1,-0.9 3.9,-1.2 5.7,-1.2 3.6,0 6.7,1.8 10,5.5 2.6,-6.1 5.6,-11.6 9,-16.9 L 60.3,45.9 58,48.6 C 55.7,47.1 53.6,46.2 51.3,46.2 45.6,46.2 41,49.5 37.2,56.4 V 42.6 c 0,-10.2 3.2,-15.2 10.8,-15.2 4.3,0 8.6,2.4 11.9,6.5 C 62.5,28 65.1,22.7 68,18.2 l -1.2,-1.6 -1.6,2.3 c -3.4,-2.3 -6.7,-3.4 -9.7,-3.4 -11.9,0 -19.9,9 -19.9,25.5 v 38.5 c -4.3,1.5 -8.5,4.1 -12.7,7.4 -3.2,2.7 -6.4,5.8 -9.6,9.5 3.3,-1.6 6.6,-2.8 9.6,-3.8 4.4,-1.3 8.8,-2 13,-2 7.5,0 15.1,2.2 22.3,6.2 3.1,-6.4 6.5,-12.2 10,-17.6 l -1.3,-1.8 z"
   id="path65" />
<path
   class="st0"
   d="m 90.8,87 c -1.3,-2.5 -3,-4 -5.6,-4.9 V 28.6 c 0,-4 0.2,-7.7 3,-13 -4.4,3.6 -8.4,5.3 -12.9,5.3 -0.8,0 -1.7,-0.1 -2.6,-0.2 2.1,2.7 2.6,5.1 2.6,8.2 v 54.3 c -2.8,1.4 -4.3,4 -4.7,8.2 1.9,-0.8 3.3,-1.2 4.5,-1.2 3.1,0 5.6,1.9 8.3,5.6 2.4,-2.9 6.5,-6.2 12.1,-9.6 l -0.9,-1.9 z"
   id="path67" />
<path
   class="st0"
   d="m 22.6,30.5 c 0.8,0.2 1.6,0.3 2.4,0.3 4.3,0 10.9,-4.8 15.5,-13.8 -2.3,1.9 -4.3,2.9 -6.6,2.9 -3.9,0 -7.2,-3.2 -11.3,-4 -0.6,-0.2 -1.1,-0.3 -1.8,-0.3 -5.7,0 -11.4,5.7 -14.3,15.8 2.4,-2.8 4.5,-4.3 6.6,-4.3 3.2,0.1 6.4,2.5 9.5,3.4 z"
   id="path69" />
<path
   class="st0"
   d="m 219.1,89 c 1.7,-0.3 2.8,-0.3 3.3,-0.3 4.7,0 8.9,2.5 13.4,7.2 2,-2.1 3.8,-3.7 5.6,-4.9 2.5,-1.6 4.8,-2.6 7.3,-2.7 0,0.4 -0.1,0.8 -0.1,1 0,3 1.4,3 4.3,4.2 1.2,0.5 1.9,1.3 1.9,3.1 0,3.1 -2.4,5.2 -6.4,9.1 -1.9,-2.7 -4.2,-4.3 -6.9,-4.9 -1.1,-0.3 -2.4,-0.4 -3.8,-0.4 -6.5,0 -11.4,3.8 -15.4,11.7 2.2,-1.1 4.3,-1.5 6.5,-1.5 4.3,0 8.1,1.7 12,4.9 0.3,-0.3 0.5,-0.5 0.7,-0.7 4.6,-4.2 10.2,-9.1 17.2,-14.6 3.4,-2.6 5,-4 5,-8.3 0,-4.3 -2.8,-5.1 -4.3,-7.1 -1,-1.3 -1.1,-3.5 -1.1,-6.3 V 52.1 c 2.2,-1.6 3.8,-3.3 4.6,-5.5 -1.2,0.2 -2.2,0.3 -2.9,0.3 -4.6,0 -8.7,-2.5 -12.8,-7.7 -1.7,1.6 -3.6,3 -5.7,4.2 -4.1,2.3 -8.5,3.4 -13,3.4 -2.1,0 -4.3,-0.3 -6.4,-0.9 2.3,2.7 2.7,6.1 2.7,11.2 v 24.7 c -2.4,1.6 -4.3,4 -5.7,7.2 z m 15.6,-41.1 c 1.2,-0.4 2.6,-0.6 3.8,-1.1 0.9,1.6 1.9,2.9 3,4.1 1.8,1.6 4.1,2.7 6.7,3.2 v 32.5 c -1.1,0.2 -2.4,0.5 -3.7,0.7 -0.9,-1.5 -1.9,-2.7 -3,-3.6 -2,-1.8 -4.2,-2.7 -6.7,-3 V 47.9 Z"
   id="path71" />
<path
   class="st0"
   d="m 199.4,27.3 c 2.1,0 3.9,3.5 7.3,3.5 3.8,0 7.3,-3.9 7.8,-9.6 -1,0.5 -1.8,0.8 -2.6,0.8 -2.4,0 -4.6,-2.1 -6.1,-6.4 -2.9,3.9 -6.1,7.8 -9.6,11.4 l 1,1.6 c 0.7,-0.9 1.4,-1.3 2.2,-1.3 z"
   id="path73" />
<path
   class="st0"
   d="m 192.7,57.8 c 0,-12.2 -7.1,-17.9 -22.5,-20.1 4.9,-6.7 10.2,-11.4 15.2,-15.6 l -1,-1.9 -2.5,1.8 c -5.5,-3.9 -11.1,-6.2 -19.2,-6.2 -1.6,0 -3.2,0.2 -4.8,0.4 -12.7,1.5 -20.2,9.5 -20.2,20.2 0,10.2 6.1,12.9 20.2,13.8 1,0 1.9,0.1 2.8,0.1 l -2.8,4.4 -1.1,1.5 c -15,-0.9 -22.7,-4.7 -22.7,-10.8 0,-0.3 0.1,-0.6 0.1,-0.8 -2.4,2.9 -3.3,5.7 -3.3,9.7 0,9.4 5.4,13.1 17.4,14.3 -3.9,5.4 -7.9,8 -10.7,8.2 v -0.9 c 0,-4.6 -1.7,-7.1 -4.6,-7.1 -2.6,0 -4.5,2.5 -4.5,5.8 0,3.6 1.9,5.7 5.5,5.7 4.6,0 10.4,-3.7 16.3,-11.5 2.7,0.2 5.2,0.4 7.5,0.6 11.1,0.9 16,2 16,6.5 0,0.4 -0.2,1.4 -0.5,2.8 4,-3.2 6,-7.4 6,-11.3 0,-8.2 -6.6,-10.6 -20.5,-11.2 l 4.1,-5.7 c 16,0.8 22.9,3.7 22.9,13.3 0,6.1 -4.6,11 -10.7,19.3 -3.9,-3.7 -10,-6.2 -17.3,-6.2 h -0.7 c -13.8,0 -25.4,7.7 -31,19.9 4.9,-4.3 11.4,-6.6 19,-6.6 4,0 8.1,0.8 12.7,2.2 3.3,1.1 6.8,2.6 10.5,4.5 4.2,-6 7.9,-10.9 11,-14.9 8,-9.9 13.4,-15.3 13.4,-24.2 z m -34.8,-21 C 148,36 143.8,34.7 143.8,28.6 c 0,-4.4 3.3,-7.6 8.7,-7.6 1.8,0 3.6,0.4 5.4,1 4.6,1.5 9.2,4.9 14,10.2 l -3.7,5.2 c -4,-0.2 -7.4,-0.4 -10.3,-0.6 z"
   id="path75" />
<path
   class="st0"
   d="M 407.8,78.1 V 58.6 c 0,-5.9 0.2,-9.3 3.2,-11.9 -2.5,-1.3 -4.6,-2.9 -6.1,-4.7 L 391,26.6 386.7,21.8 c -1.7,-1.8 -2.6,-3.4 -2.8,-6.1 -4.3,4 -8.7,5.3 -13.3,6.6 3.2,1.6 6.1,3.7 8.5,6.3 l 11.9,12.9 1.1,1 c -0.4,0.2 -0.8,0.4 -1.1,0.6 -4.9,2.5 -9.2,3.7 -12.9,3.7 -2.2,0 -4.4,-0.3 -6.5,-0.9 2.2,2.7 2.7,6.1 2.7,11.2 v 24.7 c -2.5,1.6 -4.3,4 -5.6,7.2 1.7,-0.3 2.7,-0.3 3.3,-0.3 4.7,0 8.8,2.5 13.4,7.2 1.7,-2.1 3.6,-3.7 5.6,-4.9 3.7,-2.4 8,-3.4 13,-3.4 1.9,0 4.1,0.2 6.2,0.4 -2.2,-3.6 -2.4,-6.4 -2.4,-9.9 z m -10.1,8.3 c -1.3,0.3 -2.6,0.7 -3.7,1.2 -1,-1.5 -2,-2.6 -3,-3.6 -2,-1.7 -4.2,-2.7 -6.7,-2.9 V 47.8 c 2.3,-0.7 4.6,-1.5 6.7,-2.6 0.7,-0.4 1.6,-0.9 2.5,-1.3 l 4.3,4.7 v 37.8 z"
   id="path77" />
<path
   class="st0"
   d="m 650.8,47.1 c -2.5,0 -4.6,-2.7 -7.2,-7.8 l -8.5,13 c -0.1,-6.1 -1.9,-9.7 -6.1,-12.8 -3.1,3.8 -6.3,6.6 -10.2,9 v 1.4 c 4.5,0.3 6.3,2.8 6.3,8.4 v 25.1 c -2.6,1.8 -4.1,4.4 -4.5,8.2 1.6,-0.9 3.2,-1.2 4.4,-1.2 3.1,0 5.6,1.9 8.3,5.6 3.1,-3.5 7.3,-6.5 12,-9.6 l -0.8,-1.9 -3.3,2.5 c -2,-2.6 -3.9,-4.3 -6.1,-5.2 V 54.9 l 2.6,-3.6 c 1.1,4.3 3.5,6.6 6.7,6.6 4.3,0 7.8,-4 8.8,-11.3 -1,0.2 -1.8,0.5 -2.4,0.5 z"
   id="path79" />
<path
   class="st0"
   d="m 609.7,84.5 -3.3,2.5 c -2,-2.6 -3.9,-4.3 -6.2,-5.2 V 54.9 l 2.5,-3.6 c 1.1,4.3 3.6,6.6 6.8,6.6 4.2,0 7.7,-4 8.7,-11.3 -1,0.3 -1.9,0.6 -2.5,0.6 -2.5,0 -4.6,-2.7 -7.2,-7.8 l -8.4,13 c -0.2,-6.1 -1.9,-9.7 -6.2,-12.8 -3.1,3.8 -6.3,6.6 -10,9 V 50 c 4.4,0.3 6.3,2.8 6.3,8.4 v 25.1 c -2.6,1.8 -4.1,4.4 -4.6,8.2 1.7,-0.9 3.2,-1.2 4.5,-1.2 3,0 5.5,1.9 8.3,5.6 3.1,-3.5 7.2,-6.5 12,-9.6 z"
   id="path81" />
<path
   class="st0"
   d="M 577.4,88 C 575.2,84.4 575,81.7 575,78.1 v -26 c 2.1,-1.6 3.7,-3.3 4.5,-5.5 -1.2,0.2 -2.2,0.3 -2.9,0.3 -4.6,0 -8.6,-2.5 -12.7,-7.7 -1.7,1.6 -3.7,3 -5.7,4.2 -4.1,2.3 -8.7,3.4 -13.1,3.4 -2.1,0 -4.3,-0.3 -6.4,-0.9 2.3,2.7 2.8,6.1 2.8,11.2 v 24.7 c -2.5,1.6 -4.2,4 -5.6,7.2 1.6,-0.3 2.7,-0.3 3.4,-0.3 4.6,0 8.7,2.5 13.3,7.2 1.7,-2.1 3.6,-3.7 5.6,-4.9 3.8,-2.4 8,-3.4 13,-3.4 2,0 4.1,0.2 6.2,0.4 z M 565,86.4 c -1.2,0.3 -2.6,0.7 -3.8,1.2 -1,-1.5 -1.9,-2.6 -2.9,-3.6 -1.9,-1.7 -4.1,-2.7 -6.7,-2.9 V 47.9 c 1.1,-0.4 2.5,-0.6 3.7,-1.1 0.9,1.6 1.8,2.9 3,4 1.8,1.7 4,2.8 6.7,3.3 z"
   id="path83" />
<path
   class="st0"
   d="m 687.8,82.5 -6.2,4.9 c -2.4,-1.8 -4.7,-3.2 -7,-4.3 -1.8,-0.8 -3.6,-1.4 -5.5,-1.8 v -7.7 l 5.5,-3.9 16.5,-11.8 c -4.3,-4.1 -8,-10.5 -10.5,-18.7 -1.7,1.9 -3.7,3.4 -6,4.6 -3.5,1.9 -7.6,2.9 -11.9,2.9 -2.1,0 -4.3,-0.4 -6.3,-0.9 2.3,2.7 2.8,6.1 2.8,11.2 v 25 c -2.4,1.3 -4.2,3.6 -5.7,7 1.6,-0.3 2.8,-0.3 3.4,-0.3 3.4,0 9.8,1.8 17.7,6.7 0.2,0.1 0.5,0.3 0.8,0.5 L 688.7,84.4 Z M 669.1,47.9 c 1.2,-0.4 2.4,-0.6 3.7,-1.1 0.6,1.6 1.1,3.1 1.8,4.6 1.6,3.9 3.5,7.8 5.6,11.7 l -5.6,3.9 -5.5,3.9 z"
   id="path85" />
<path
   class="st0"
   d="M 779.6,76 V 52 c 2.7,-1.9 4,-4.5 4.4,-8.4 -1.3,0.9 -2.4,1.2 -3.5,1.2 -2.6,0 -5.3,-2 -6.8,-5.6 L 756.2,54 v -1 c 0,-6.5 -1.7,-10.3 -6.2,-13.6 -3.1,3.8 -6.5,6.6 -10.1,9 v 1.4 c 4.9,0.6 6.3,2.8 6.3,8.4 v 24.2 c -2.6,1.5 -4.3,3.6 -5.6,6.7 4.6,0 8.3,2.1 12,6.8 3.1,-4.6 6.2,-7.7 9.7,-9.4 -1.4,-2.1 -3.3,-3.5 -6.1,-4.7 V 56.1 l 9,-7.6 c 1.3,2.7 2.7,4.3 4.4,4.9 v 26.1 c 0,8.9 1.8,13.5 8.5,15.5 2.4,-4.1 5,-6.8 8,-9.1 V 84.6 C 780.9,84.5 779.6,82 779.6,76 Z"
   id="path87" />
<path
   class="st0"
   d="m 504.3,79.8 c 2.4,-0.9 4.5,-1.6 6.2,-2.5 5.7,-2.8 7.9,-6.3 7.9,-12.9 V 33.3 c -2.8,2 -5.4,3.6 -7.9,5 -2.8,1.6 -5.4,2.8 -7.8,3.9 v 2.4 l 4.3,-2.2 v 28.3 c -0.1,4.3 -0.7,7 -2.7,9.1 z"
   id="path89" />
<path
   class="st0"
   d="m 733.2,88 c -2.2,-3.6 -2.5,-6.4 -2.5,-9.9 v -26 c 2.2,-1.6 3.7,-3.3 4.7,-5.5 -1.3,0.2 -2.2,0.3 -3.1,0.3 -4.5,0 -8.5,-2.5 -12.6,-7.7 -1.8,1.6 -3.7,3 -5.7,4.2 -4.2,2.3 -8.8,3.4 -13.2,3.4 -2.1,0 -4.2,-0.3 -6.4,-0.9 2.3,2.7 2.7,6.1 2.7,11.2 v 24.7 c -2.5,1.6 -4.2,4 -5.6,7.2 1.7,-0.3 2.8,-0.3 3.4,-0.3 4.7,0 8.8,2.5 13.3,7.2 1.8,-2.1 3.6,-3.7 5.7,-4.9 3.8,-2.4 8,-3.4 13,-3.4 2,0 4.1,0.2 6.3,0.4 z m -12.4,-1.6 c -1.3,0.3 -2.7,0.7 -3.8,1.2 -0.9,-1.5 -2,-2.6 -2.9,-3.6 -2,-1.7 -4.2,-2.7 -6.7,-2.9 V 47.9 c 1.3,-0.4 2.6,-0.6 3.7,-1.1 0.8,1.7 1.8,3 3,4.1 1.8,1.6 4,2.7 6.7,3.2 z"
   id="path91" />
<path
   class="st0"
   d="m 535,69.1 c -2.5,3.7 -4.7,6.2 -6.2,8 V 27.9 c 4.6,-2.3 8.1,-6.2 10.1,-11.2 -2.9,1.4 -6.3,1.7 -10.2,1.7 -5.3,0 -11.4,-1.1 -18.1,-2 -3.8,-0.5 -7.8,-0.9 -12,-0.9 -9.3,0 -14.8,5.5 -15.8,16.1 1.8,-3.3 4.8,-4.3 9.7,-4.3 6.6,0 12.7,0.9 18.2,1.4 3.8,0.5 7.2,0.8 10.3,0.8 2.1,0 4.1,-0.2 6.1,-0.8 v 49.8 c -4,3.9 -9.9,6.2 -16.4,6.2 -0.1,0 -0.1,-0.1 -0.1,-0.1 -11.4,0 -19,-9.9 -19,-24.6 0,-10.7 2.6,-19.3 7.8,-28.1 -10.3,7.8 -16.2,20.8 -16.2,35.5 0,17.3 10.6,29.3 26.1,29.3 0.5,0 0.9,-0.1 1.4,-0.1 11.9,-0.8 21.4,-11.3 24.3,-27.5 z"
   id="path93" />
</svg>
